<?xml version="1.0" encoding="UTF-8"?>
<svg xmlns="http://www.w3.org/2000/svg" viewBox="0 0 400 400">
  <title>Tjopper — hmm (thinking)</title>
  <path d="M 90 320 V 200 A 110 110 0 0 1 310 200 V 320"
        fill="none" stroke="#E89A2B" stroke-width="70"
        stroke-linecap="round" stroke-linejoin="round"/>
  <g transform="rotate(2.5 200 320) translate(200 320) scale(1.30) translate(-200 -320)">
    <path d="M 153 320 Q 145 320 145 312 L 145 215 Q 145 155 200 155 Q 255 155 255 215 L 255 312 Q 255 320 247 320 Z"
          fill="#F4E9D5"/>
    <circle cx="170" cy="244" r="10" fill="#D87767" fill-opacity="0.45"/>
    <circle cx="230" cy="244" r="10" fill="#D87767" fill-opacity="0.45"/>
    <!-- eyes shifted up-and-right (looking off in thought) -->
    <circle cx="188" cy="212" r="11" fill="#222222"/>
    <circle cx="220" cy="212" r="11" fill="#222222"/>
    <!-- mouth: small wavy line, slightly skewed -->
    <path d="M 184 275 Q 192 271 200 275 Q 208 279 216 275"
          fill="none" stroke="#222222" stroke-width="7"
          stroke-linecap="round"/>
  </g>
</svg>
